<?xml version="1.0" encoding="UTF-8" standalone="no"?>
<svg
   viewBox="186 38 76 76"
   version="1.1"
   id="svg47"
   sodipodi:docname="calendar_nord_mono.svg"
   inkscape:version="1.1.1 (3bf5ae0d25, 2021-09-20)"
   inkscape:export-filename="C:\xampp\htdocs\resources\media\calendar_nord_mono.png"
   inkscape:export-xdpi="128"
   inkscape:export-ydpi="128"
   xmlns:inkscape="http://www.inkscape.org/namespaces/inkscape"
   xmlns:sodipodi="http://sodipodi.sourceforge.net/DTD/sodipodi-0.dtd"
   xmlns="http://www.w3.org/2000/svg"
   xmlns:svg="http://www.w3.org/2000/svg">
  <defs
     id="defs51" />
  <sodipodi:namedview
     id="namedview49"
     pagecolor="#e5e9f0"
     bordercolor="#666666"
     borderopacity="1.0"
     inkscape:pageshadow="2"
     inkscape:pageopacity="1"
     inkscape:pagecheckerboard="0"
     showgrid="false"
     inkscape:zoom="3.7634828"
     inkscape:cx="3.3213916"
     inkscape:cy="29.361101"
     inkscape:window-width="1920"
     inkscape:window-height="1017"
     inkscape:window-x="-8"
     inkscape:window-y="-8"
     inkscape:window-maximized="1"
     inkscape:current-layer="svg47" />
  <path
     fill="#fff"
     d="M244 56h-40v40h40V56z"
     id="path31"
     style="fill:#e5e9f0;fill-opacity:1"
     inkscape:export-filename="C:\xampp\htdocs\resources\media\path31.png"
     inkscape:export-xdpi="128"
     inkscape:export-ydpi="128" />
  <path
     fill="#EA4335"
     d="M244 114l18-18h-18v18z"
     id="path33"
     style="fill:#3b4252;fill-opacity:1" />
  <path
     fill="#FBBC04"
     d="M262 56h-18v40h18V56z"
     id="path35"
     style="fill:#434c5e;fill-opacity:1" />
  <path
     fill="#34A853"
     d="M244 96h-40v18h40V96z"
     id="path37"
     style="fill:#434c5e;fill-opacity:1" />
  <path
     fill="#188038"
     d="M186 96v12c0 3.315 2.685 6 6 6h12V96h-18z"
     id="path39"
     style="fill:#2e3440;fill-opacity:1" />
  <path
     fill="#1967D2"
     d="M262 56V44c0-3.315-2.685-6-6-6h-12v18h18z"
     id="path41"
     style="fill:#2e3440;fill-opacity:1" />
  <path
     fill="#4285f4"
     d="m 244,38 h -52 c -3.315,0 -6,2.685029 -6,6.000065 V 96.00063 h 18 V 56.000195 h 40 z"
     id="path43"
     style="stroke-width:1;fill:#4c566a;fill-opacity:1" />
  <path
     fill="#4285F4"
     d="M212.205 87.03c-1.495-1.01-2.53-2.485-3.095-4.435l3.47-1.43c.315 1.2.865 2.13 1.65 2.79.78.66 1.73.985 2.84.985 1.135 0 2.11-.345 2.925-1.035s1.225-1.57 1.225-2.635c0-1.09-.43-1.98-1.29-2.67-.86-.69-1.94-1.035-3.23-1.035h-2.005V74.13h1.8c1.11 0 2.045-.3 2.805-.9.76-.6 1.14-1.42 1.14-2.465 0 -.93-.34-1.67-1.02-2.225-.68-.555-1.54-.835-2.585-.835-1.02 0 -1.83.27-2.43.815a4.784 4.784 0 0 0 -1.31 2.005l-3.435-1.43c.455-1.29 1.29-2.43 2.515-3.415 1.225-.985 2.79-1.48 4.69-1.48 1.405 0 2.67.27 3.79.815 1.12.545 2 1.3 2.635 2.26.635.965.95 2.045.95 3.245 0 1.225-.295 2.26-.885 3.11-.59.85-1.315 1.5-2.175 1.955v.205a6.605 6.605 0 0 1 2.79 2.175c.725.975 1.09 2.14 1.09 3.5 0 1.36-.345 2.575-1.035 3.64s-1.645 1.905-2.855 2.515c-1.215.61-2.58.92-4.095.92-1.755.005-3.375-.5-4.87-1.51zM233.52 69.81l-3.81 2.755-1.905-2.89 6.835-4.93h2.62V88h-3.74V69.81z"
     id="path45"
     style="fill:#4c566a;fill-opacity:1" />
</svg>
